<svg fill="#0D99C6" id="Layer_1" data-name="Layer 1" xmlns="http://www.w3.org/2000/svg" viewBox="0 0 150.77 166.87">
    <path d="M373,492c-7.62-7.65-15.28-15.26-22.83-23-1.77-1.81-3.09-2.25-5.5-.78-23.07,14.21-53.05,2.29-59.11-24.51-4.78-21.17,6.45-40.46,27.66-46.5a39,39,0,0,1,49.48,30.67c2,10.55.09,21.06-6.89,30.06l25.94,25.84L374,492Zm-48.81-85c-15-.17-28.21,12.5-28.15,27.28.06,16.52,11.81,28.55,27.7,28.49,16.38-.06,27.8-11.26,28.06-27.53C352.06,419.3,340.4,408,324.19,407Z" transform="translate(-230.98 -325.13)"/>
    <path d="M343.09,358.1l19.57-8c10.61,12.6,16,27.5,17,44.5H348.59C346.78,382.64,345,370.53,343.09,358.1Z" transform="translate(-230.98 -325.13)"/>
    <path d="M247.61,350.2,267,358.14c-1.68,12.11-3.34,24.07-5.06,36.5-9.54,0-20.44.11-30.82.11C230,381,237.47,360.72,247.61,350.2Z" transform="translate(-230.98 -325.13)"/>
    <path d="M267,436.57c-5.13,2.05-13,5-18.69,6.93-1.41.48-1.57-.4-2.5-1.38C238.1,433.93,230.58,410.93,231,400h30.89C263.64,412.5,265.31,424.43,267,436.57Z" transform="translate(-230.98 -325.13)"/>
    <path d="M302,363.29v31.46H267q2.76-18.35,5.3-35.28Z" transform="translate(-230.98 -325.13)"/>
    <path d="M308.2,395.34c-.09-1.93-.19-3.08-.19-4.23,0-9.12,0-18.25,0-27.75l30.08-3.91L343.21,396C330.66,391.66,319.67,390.27,308.2,395.34Z" transform="translate(-230.98 -325.13)"/>
    <path d="M334.87,355.88l-26.59,3.29v-34C317.62,323.91,332.8,342.31,334.87,355.88Z" transform="translate(-230.98 -325.13)"/>
    <path d="M275.16,355.91c3.26-14.24,16.71-31.93,26.89-30.57v33.78Z" transform="translate(-230.98 -325.13)"/>
    <path d="M266.91,400.17h31.71c-7.94,6.81-13.7,14.56-15.9,24.51-.28,1.27-.94,9-2.14,9.26-5.51,1.05-3.3.66-6.86.95-1.25.1-1.29-1.51-1.49-2.6C270.29,421.86,268.71,411.36,266.91,400.17Z" transform="translate(-230.98 -325.13)"/>
    <path d="M367,438.48c.29-16.14-5.53-28.17-17.5-38.21h30.12C378.71,413.74,375.32,426.17,367,438.48Z" transform="translate(-230.98 -325.13)"/>
    <path d="M251,448.61l17.21-6.86c5.79,9.54,11.17,18.41,16.29,26.83C272.28,465.65,261.44,458.59,251,448.61Z" transform="translate(-230.98 -325.13)"/>
    <path d="M326,326.05c12.61,3.11,23.11,10.43,33.5,20l-17.67,6.74Z" transform="translate(-230.98 -325.13)"/>
    <path d="M251.1,347.48A73.78,73.78,0,0,1,284.66,327l-16.52,27Z" transform="translate(-230.98 -325.13)"/>
    <path d="M298.61,469.7c-13.69-4.92-18.51-17.05-24-29.11l7-1.72C283,451.57,289.19,461.46,298.61,469.7Z" transform="translate(-230.98 -325.13)"/>
</svg>